<?xml version="1.0" standalone="no"?>
<!DOCTYPE svg PUBLIC "-//W3C//DTD SVG 1.1//EN" "http://www.w3.org/Graphics/SVG/1.1/DTD/svg11.dtd" >
<!--
2013-9-30: Created.
-->
<svg>
<metadata>
Created by iconfont
</metadata>
<defs>

<font id="iconfont" horiz-adv-x="1024" >
  <font-face
    font-family="iconfont"
    font-weight="500"
    font-stretch="normal"
    units-per-em="1024"
    ascent="896"
    descent="-128"
  />
    <missing-glyph />
    
    <glyph glyph-name="huochepiao" unicode="&#58880;" d="M862.4552 54.475H156.97138134455815c-26.8618 0-50.7455-2.3274-50.7455 22.3078l13.97 609.7734c0 0.0849 0.0859 0.2059 0.1029 0.2918-0.017 0.1539-0.1029 0.2558-0.1029 0.4107 0 16.8975 20.1341 34.1198 55.2816 49.5283 17.3609 9.0728 34.4639 15.4245 45.5068 16.3149 71.0664 21.1266 174.6461 35.8666 295.4986 35.8666 228.4056 0 383.9609-52.4383 383.9609-101.7088 0-0.1709-0.0859-0.2738-0.1029-0.4287 0.017-0.0849 0.1029-0.1879 0.1029-0.2728l7.0535-356.2977c0.4637-2.4993 1.576-4.7768 1.576-7.413 0-2.1915-0.9924-4.0572-1.3182-6.1628l4.7599-239.8999C912.5151 52.1475 889.3329 54.475 862.4552 54.475zM701.2475 114.652c43.1953 0 78.2229 35.0272 78.2229 78.2368 0 43.2106-35.0285 78.2378-78.2229 78.2378-43.2113 0-78.2408-35.0272-78.2408-78.2378C623.0067 149.6782 658.0362 114.652 701.2475 114.652zM315.3009 114.652c43.2113 0 78.2408 35.0272 78.2408 78.2368 0 43.2106-35.0285 78.2378-78.2408 78.2378-43.2123 0-78.2408-35.0272-78.2408-78.2378C237.06 149.6782 272.0886 114.652 315.3009 114.652zM773.3423 620.0114c0 4.6568-1.0443 9.2107-2.9441 13.6107-1.626 4.485-4.4352 8.5772-7.841 12.4295-0.035 0.034-0.052 0.068-0.0859 0.1029-2.2606 2.5503-4.641 5.0845-7.6871 7.362-22.2228 19.9784-59.6308 33.5542-85.2943 33.5542H386.50425077525307c-16.2986 0-43.759-5.6492-70.0221-14.723-45.7807-10.5798-68.8928-27.3924-68.8928-52.3354v-223.5339968821202c0-10.4089 2.6713-20.1323 7.0545-28.9323h511.66302400161493c4.3832 8.8 7.0355 18.5234 7.0355 28.9323V620.0113922532678zM303.0088-30.1145l-13.4564-22.3918h453.8640731291242l-0.2918 0.4787-19.7673 24.7502 164.2287-7.6618 95.4138-156.0669h-156.4796965145342l-42.8525 71.4234h-534.3474832632284l-42.8695-71.4234H49.9679705308897l85.3793 142.2653L303.0088-30.1145z"  horiz-adv-x="1000" />

    
    <glyph glyph-name="fangdajing" unicode="&#58891;" d="M961.341938-138.20939c-11.211343-11.005658-29.443589-11.005658-40.663118 0L690.544419 88.282041c-64.236-51.257407-145.998165-82.105996-235.123019-82.105996-206.29546 0-373.535415 164.56708-373.535415 367.641171 0 202.998367 167.239955 367.574656 373.535415 367.574656 206.294436 0 373.538485-164.577313 373.538485-367.574656 0-94.944396-36.888142-181.199898-96.90812-246.405993l229.290173-225.581712C972.566584-109.249825 972.566584-127.130054 961.341938-138.20939L961.341938-138.20939zM455.420377 684.804063c-174.532035 0-316.103378-139.265834-316.103378-310.986847 0-171.797761 141.576459-311.062572 316.103378-311.062572 174.60162 0 316.112588 139.265834 316.112588 311.062572C771.533988 545.538229 630.021997 684.804063 455.420377 684.804063L455.420377 684.804063zM455.420377 684.804063"  horiz-adv-x="1024" />

    
    <glyph glyph-name="password" unicode="&#58912;" d="M521.939 244.493c-41.249 0-74.68-33.429-74.68-74.68 0-29.721 17.512-55.18 42.675-67.188v-82.139c0-17.659 14.346-32.006 32.005-32.006 17.659 0 32.006 14.347 32.006 32.006v82.141c25.162 12.010 42.675 37.466 42.675 67.187 0 41.249-33.431 74.679-74.681 74.679zM831.296 393.822h-640.017c-35.352 0-64.012-28.627-64.012-63.98v-426.677c0-35.352 28.66-64.012 64.012-64.012h640.017c35.318 0 63.978 28.66 63.978 64.012v426.677c0.001 35.352-28.659 63.98-63.978 63.98zM831.296-54.161c0-35.352-7.322-42.675-42.675-42.675h-554.702c-35.351 0-42.64 7.322-42.64 42.675l-0 341.328c0 35.352 7.289 42.675 42.64 42.675h554.702c35.352 0 42.675-7.322 42.675-42.675v-341.328zM208.867 426.025c17.769 0 32.219 14.162 32.706 31.813l0.068-0.004c28.924 122.258 138.526 213.339 269.631 213.339 102.48 0 191.683-55.771 239.629-138.476 4.989-11.293 16.28-19.178 29.419-19.178 17.758 0 32.154 14.396 32.154 32.154 0 6.929-2.199 13.34-5.926 18.589-58.985 102.048-168.918 170.923-295.276 170.923-165.111 0-302.614-113.306-334.272-268.98-0.149-0.642-0.28-1.289-0.392-1.945-0.153-0.779-0.321-1.551-0.47-2.332l0.155-0.009c-0.1-1.041-0.155-2.095-0.155-3.162-0.001-18.078 14.653-32.731 32.729-32.731z"  horiz-adv-x="1024" />

    
    <glyph glyph-name="dingbu" unicode="&#59244;" d="M796.422846 371.521677 537.312727 630.814138c-6.368176 6.39914-14.688778 9.471415-22.976697 9.407768-1.119849 0.096331-2.07972 0.639914-3.19957 0.639914-4.67206 0-9.024163-1.087166-13.023626-2.879613-4.032146-1.536138-7.87163-3.872168-11.136568-7.135385L227.647682 371.72294c-12.512727-12.480043-12.54369-32.735385-0.032684-45.248112 6.239161-6.271845 14.432469-9.407768 22.65674-9.407768 8.191587 0 16.352211 3.135923 22.624056 9.34412L479.1356 532.573579l0-563.712619c0-17.695686 14.336138-31.99914 32.00086-31.99914s32.00086 14.303454 32.00086 31.99914L543.13732 534.1424l207.91012-207.73982c6.240882-6.271845 14.496116-9.440452 22.687703-9.440452s16.319527 3.103239 22.560409 9.311437C808.870206 338.722645 808.902889 359.010671 796.422846 371.521677zM864.00258 704 160.00258 704c-17.664722 0-32.00086 14.336138-32.00086 32.00086S142.337858 768 160.00258 768l704 0c17.695686 0 31.99914-14.336138 31.99914-32.00086S881.698266 704 864.00258 704z"  horiz-adv-x="1024" />

    
    <glyph glyph-name="shanchuguanbiquxiaowubiankuang" unicode="&#59402;" d="M823.04 55.68 524.16 355.84l296.32 294.4c12.8 12.8 12.8 33.28 0 45.44-12.8 12.8-33.28 12.8-46.08 0L478.08 401.92 184.96 695.68c-12.8 12.8-33.28 12.8-45.44 0s-12.8-33.28 0-45.44l292.48-293.76-302.72-300.8c-12.8-12.8-12.8-33.28 0-45.44 12.8-12.8 33.28-12.8 46.08 0l302.72 300.16 299.52-300.16c12.8-12.8 33.28-12.8 45.44 0C835.2 22.4 835.2 42.88 823.04 55.68z"  horiz-adv-x="1024" />

    
    <glyph glyph-name="zhucedengluyonghuming" unicode="&#58925;" d="M928.382896 104.478172c-16.965943 46.689367-41.579822 89.948478-73.155583 128.575208-51.760002 63.320477-120.315971 111.082951-196.762552 137.862498 12.559856 8.716946 24.437758 18.60837 35.477038 29.648675 48.352273 48.351249 74.981299 112.635269 74.981299 181.013069 0 68.3778-26.629026 132.662844-74.981299 181.013069-48.351249 48.349201-112.634245 74.976179-181.00795 74.976179-68.3778 0-132.662844-26.626978-181.012045-74.976179s-74.976179-112.634245-74.976179-181.013069c0-68.3778 26.626978-132.662844 74.976179-181.012045 10.997298-10.997298 22.827073-20.858004 35.334708-29.549351-76.436342-26.701727-144.996406-74.372044-196.810678-137.613676-31.667918-38.653353-56.356545-81.956494-73.376758-128.70525-17.616156-48.38504-26.548133-99.258295-26.548133-151.205681 0-12.852708 10.419786-23.272495 23.272495-23.272495s23.271471 10.419786 23.271471 23.272495c0 184.927657 130.697871 347.138828 311.032057 386.437274 26.902422-9.421428 55.490277-14.340518 84.837909-14.340518 29.29541 0 57.834115 4.902706 84.696603 14.293416 180.095604-39.415177 310.672648-201.692905 310.672648-386.391196 0-12.852708 10.419786-23.272495 23.272495-23.272495s23.272495 10.419786 23.272495 23.272495C954.847064 5.358111 945.942734 56.157641 928.382896 104.478172zM303.487542 581.576598c0 115.489037 93.95727 209.446307 209.445283 209.446307 115.488014 0 209.445283-93.95727 209.445283-209.446307 0-115.489037-93.95727-209.445283-209.445283-209.445283C397.444811 372.131314 303.487542 466.08756 303.487542 581.576598z"  horiz-adv-x="1024" />

    
    <glyph glyph-name="my" unicode="&#59015;" d="M885.465319-52.366416c-5.54018 0-10.033517 4.493338-10.033517 10.033517 0 109.34743-48.546669 211.866339-133.191488 281.267988-4.285606 3.515057-4.910846 9.836019-1.39886 14.121626 3.514033 4.285606 9.834996 4.91187 14.122649 1.397836 89.311095-73.229838 140.534733-181.403536 140.534733-296.78745C895.498836-47.873078 891.005498-52.366416 885.465319-52.366416zM138.533658-52.366416c-5.542226 0-10.033517 4.493338-10.033517 10.033517 0 51.77827 10.140964 102.011348 30.140461 149.305491 19.315928 45.676295 46.965661 86.695524 82.183767 121.918747 35.217083 35.223223 76.229149 62.878073 121.898281 82.198094 47.285956 20.00359 97.511871 30.146601 149.280932 30.146601 6.185886 0 12.435217-0.147356 18.579147-0.437975 5.53404-0.26299 9.809413-4.963035 9.547447-10.498098-0.261966-5.53404-4.952802-9.785877-10.497075-9.54847-5.827729 0.277316-11.759835 0.416486-17.630542 0.416486-200.398146 0-363.435383-163.065889-363.435383-363.501898C148.567175-47.873078 144.074861-52.366416 138.533658-52.366416zM518.304078 319.732278c-66.812685 0-129.624243 26.038026-176.86722 73.318866-47.239907 47.27777-73.256444 110.137423-73.256444 176.998203s26.016537 129.71941 73.256444 176.998203c47.242977 47.279816 110.054535 73.317843 176.86722 73.317843 66.812685 0 129.624243-26.038026 176.866197-73.317843 47.239907-47.278793 73.256444-110.137423 73.256444-176.998203s-26.016537-129.720434-73.256444-176.998203C647.928321 345.770304 585.116763 319.732278 518.304078 319.732278zM518.304078 800.299381c-126.85313 0-230.055606-103.290481-230.055606-230.250034 0-126.960577 103.202477-230.251058 230.055606-230.251058 126.854153 0 230.055606 103.290481 230.055606 230.251058C748.359684 697.009923 645.158231 800.299381 518.304078 800.299381z"  horiz-adv-x="1024" />

    
    <glyph glyph-name="changyonglogo40" unicode="&#59170;" d="M517.741259 219.542414c-67.105351-3.637854-126.141932 36.759205-151.879106 91.833545-28.284183 60.517305-22.948665 120.268154 17.433044 173.59264 38.496779 50.837852 92.007507 71.033823 155.378813 63.46545 31.457456-3.75758 59.190077-16.672728 83.367733-37.193087 13.117762-11.140735 12.825097-16.119119-1.718131-24.465205-12.636808-7.255241-25.337061-14.395872-37.908378-21.765723-34.756595-20.361747-69.728084-40.370453-104.07945-61.402465-18.395976-11.256368-22.074761-29.214369-11.792581-47.845705 11.123338-20.149922 32.68747-24.840758 55.534827-11.631922 67.890226 39.261189 135.553279 78.912257 203.657376 117.804033 11.268648 6.433526 12.506848 12.979616 7.499811 23.883967-17.61724 38.361703-43.562145 69.872371-78.328973 93.444229-76.822666 52.086285-158.791539 60.431348-242.733347 20.86419-83.740216-39.473013-129.229247-108.788705-136.791479-200.144366-6.265704-75.734892 22.550599-139.857305 77.215616-192.627159 76.216869-73.571622 203.592908-85.148285 291.139823-26.002211 22.796192 15.395642 22.796192 15.395642 8.662287 38.911218-15.282055 25.418926-30.446429 30.143531-56.975643 17.425881C570.320779 225.659739 544.299125 217.842703 517.741259 219.542414zM748.179582 327.166597c-1.26276 18.193361-11.128455 32.971949-19.642362 48.208978-2.7793 4.976338-7.238868 3.061732-11.218506 0.791016-15.604396-8.933463-31.160697-17.943674-46.883797-26.660196-6.683213-3.705392-7.865131-8.192589-4.001127-14.705933 8.954953-15.093766 17.844413-30.227442 26.429952-45.528939 3.730974-6.647397 8.205892-8.16803 14.644535-4.097318 9.402137 5.942339 19.108197 11.453866 28.184923 17.853623C743.767086 308.727643 748.511133 316.736037 748.179582 327.166597z"  horiz-adv-x="1024" />

    
    <glyph glyph-name="huafeichongzhi" unicode="&#58931;" d="M146.005065 894.553625c147.458629 0 294.960661 0 442.41929 0 57.853322 0.0014 134.890281 10.245647 159.606959-23.801038 14.359026-19.780062 14.00061-47.210058 14.00061-82.603602 0-43.863913 0-87.741826 0-131.605738 0-183.856016 0-367.768035 0-551.624052 0-41.531411 0-83.074022 0-124.605433 0-18.071988 3.526754-43.396292-1.400061-58.802564-5.617045-17.566566-17.733173-33.185647-32.201404-42.001831-16.925338-10.31425-50.316794-7.000305-77.003357-7.000305-56.930682 0-113.876765 0-170.807447 0-83.995262 0-168.015726 0-252.010988 0-40.481365 0-87.230803-4.387791-110.604823 12.600549C84.343577-90.424322 92.801345-22.795773 92.802745 34.916143c0 133.925639 0 267.891881 0 401.81752 0 96.594412 0 193.218225 0 289.812636 0 33.26545-5.72345 103.867729 4.200183 127.405555C103.139396 868.506889 117.504022 884.179173 132.004455 890.353442 136.921469 892.447933 142.084894 891.805305 146.005065 894.553625zM129.204333 774.148375c198.789068 0 397.636938 0 596.426005 0 0.24081 30.546532 4.256186 67.506743-14.00061 79.80348-8.321963 5.604444-23.896242 4.200183-37.801648 4.200183-27.5322 0-55.071401 0-82.603602 0-105.927219 0-211.886639 0-317.813857 0-29.864702 0-59.739205 0-89.603907 0-14.513033 0-31.865389 1.709475-40.60177-4.200183C124.945347 841.601916 128.988723 804.735509 129.204333 774.148375zM129.204333 737.746788c0-228.65377 0-457.376142 0-686.029912 198.789068 0 397.636938 0 596.426005 0 0 228.65377 0 457.376142 0 686.029912C526.84127 737.746788 327.9934 737.746788 129.204333 737.746788zM445.618129 442.333907c0-23.332017 0-46.671035 0-70.003052 39.586726 0.22261 89.993124 5.076621 124.605433-2.800122 4.658003-7.154312 12.341538-23.082806 1.400061-30.801343-7.11651-5.019219-24.880485-2.800122-36.401587-2.800122-29.864702 0-59.739205 0-89.603907 0 0.128806-48.006693 3.852968-101.500226-1.400061-147.00641-3.266342-2.800122-6.534085-5.600244-9.800427-8.400366-6.783296-0.113405-13.265578 0.386417-18.200794 1.400061-15.241065 23.439822-8.544573 113.696157-8.400366 154.006715-36.604596-0.152607-90.36694-4.929615-123.205372 1.400061-4.5978 6.857499-8.323363 8.685979-8.400366 21.000916 4.651003 5.867656 4.712605 10.996079 14.00061 12.600549 6.378678 3.985974 24.384863 1.400061 33.601465 1.400061 27.998421 0 56.005242 0 84.003663 0 0 23.332017 0 46.671035 0 70.003052-31.264763 0-62.539327 0-93.80409 0-16.0573 0-30.676738-2.136493-35.001526 9.800427-2.672717 3.326545-2.879926 7.682135-2.800122 14.00061 4.100779 4.288387 6.296075 10.54946 12.600549 12.600549 29.398482 0 58.805364 0 88.203846 0 0 0.46622 0 0.933841 0 1.400061-8.236559 5.369234-14.149017 14.149017-21.000916 21.000916-13.30058 13.30058-27.30119 25.901129-40.60177 39.201709-6.64749 6.64749-20.225282 14.940051-23.801038 23.801038 0 5.134024 0 10.266648 0 15.400671 3.526754 3.416149 4.431193 6.524284 9.800427 8.400366 3.116536 2.507509 6.716093 2.795922 12.600549 2.800122 1.904083-1.542867 4.730806-1.286656 7.000305-2.800122 15.865492-16.333112 31.736584-32.669024 47.602076-49.002137 14.287623-10.802871 25.300503-23.900442 37.801648-36.401587 6.434681-6.434681 14.503232-11.893519 19.600855-19.600855 0.46622 0 0.933841 0 1.400061 0 0 0.46622 0 0.933841 0 1.400061 26.132139 25.198299 52.271279 50.404998 78.403419 75.603296 9.218002 9.218002 19.378245 27.598003 35.001526 29.401282 5.303431 3.428749 11.719911-1.289456 16.800733-2.800122 3.008731-5.979661 5.393035-8.652377 5.600244-18.200794-19.196237-23.544827-40.262956-44.470139-61.602686-65.802869-8.02235-8.02095-18.836421-14.22042-25.201099-23.801038 29.398482 0 58.805364 0 88.203846 0 1.502266-1.052846 1.324458-0.842837 4.200183-1.400061 2.800122-3.266342 5.600244-6.534085 8.400366-9.800427 0.102204-6.41368-0.44802-12.179131-1.400061-16.800733-3.539354-2.312901-7.053508-7.053508-11.200488-8.400366C524.958188 442.333907 485.283258 442.333907 445.618129 442.333907zM129.204333 15.315289c-0.260411-34.497504-6.951303-88.090441 14.00061-102.204456 8.320563-5.604444 23.897642-4.200183 37.801648-4.200183 27.5322 0 55.071401 0 82.603602 0 105.927219 0 211.886639 0 317.813857 0 29.864702 0 59.739205 0 89.603907 0 14.513033 0 31.863989-1.709475 40.60177 4.200183 20.958914 14.175618 14.231621 67.65935 14.00061 102.204456C526.84127 15.315289 327.9934 15.315289 129.204333 15.315289zM371.414893-28.086604c35.303939 0.156807 82.703006 4.795209 114.805006-1.400061 1.345459-2.472508 1.759877-2.352103 2.800122-5.600244 2.696518-4.82461-1.13685-11.00868-5.600244-12.600549-29.398482 0-58.805364 0-88.203846 0-10.660065 0-23.16541-1.757077-28.001221 4.200183C361.94208-36.828585 367.034102-32.496796 371.414893-28.086604z"  horiz-adv-x="1024" />

    
    <glyph glyph-name="baitiao" unicode="&#58921;" d="M926.7 896 384 896c-53.7 0-102.4-48.7-102.4-102.4l0-435.2 76.8 0L358.4 768c0 26.5 24.8 51.2 51.2 51.2l491.5 0c27.3 0 46.1-19.6 46.1-46.1l0-696.3 0.8-8.5c-12-85.3-68.2-119.5-154.4-119.5-93.9 0-153.6 58.9-153.6 153.6 0 86.2 59.7 145.9 136.5 157.9l0 46.9-557.2 0C98.1 307.2 0 210.8 0 89.6 0-31.6 98.1-128 219.3-128l608.4 0 0 1.7c102.4 11.1 183.5 92.2 194.6 194.5l1.7 0 0 730.5C1024 852.5 980.5 896 926.7 896z"  horiz-adv-x="1024" />

    
    <glyph glyph-name="licai" unicode="&#58919;" d="M643.937 861.856c67.872 0 122.88-55.008 122.912-122.848 0-35.744-15.521-67.616-39.872-90.016-52.96 17.92-111.807 27.424-175.744 27.424-4.063 0-8.063-0.512-12.16-0.608-11.199 18.528-18.016 39.968-18.016 63.2C521.057 806.848 576.097 861.856 643.937 861.856M643.937 893.856c-85.408 0-154.88-69.472-154.913-154.88 0-27.648 7.81-55.2 22.594-79.712l9.6-15.872 18.528 0.448c2.304 0.032 4.607 0.192 6.88 0.352 1.504 0.096 3.04 0.224 4.576 0.224 59.392 0 115.039-8.672 165.472-25.76l17.983-6.08 13.952 12.832c31.904 29.344 50.208 70.752 50.208 113.6C798.816 824.384 729.313 893.856 643.937 893.856L643.937 893.856zM254.465 753.152c58.176-14.528 122.368-46.176 160.321-129.92 42.814 10.464 88.639 16.128 136.446 16.128 125.087 0 226.752-37.504 296.48-103.04 9.184-8.608 37.888-53.376 59.584-53.376 1.92 0 3.743 0.352 5.535 1.088 53.633 22.464 38.753 87.36-5.695 87.36-11.744 0-25.536-4.48-40.672-15.52 11.264 32.864 34.016 47.488 57.088 47.488 33.855 0 68.416-31.488 68.416-82.848 0-81.728-68.097-87.552-54.721-131.136 10.368-33.855 15.04-70.88 15.04-110.176 0-91.68-67.615-161.44-116.608-200.543-6.944-5.602-20.992-14.496-13.696-37.216 7.36-22.689 20.64-54.336 20.64-54.336 7.681-20.226-2.592-42.978-22.815-50.594l-73.408-27.808c-4.544-1.729-9.248-2.528-13.855-2.528-15.84 0-30.784 9.665-36.736 25.313 0 0-9.696 25.376-17.728 46.654-5.696 15.232-10.594 19.904-20.16 19.904-15.456 0-43.233-12.384-106.72-12.384-59.776 0-89.44 6.496-105.952 6.496-12.992 0-17.824-4.032-22.688-18.4-7.2-21.311-16-42.271-16-42.271-5.952-15.649-20.895-25.313-36.734-25.313-4.608 0-9.28 0.799-13.856 2.528l-73.441 27.807c-20.128 7.616-30.398 30.368-22.752 50.592l11.776 31.138c0 0 11.968 20.479-13.632 34.432-51.232 27.84-89.792 70.048-114.688 122.208-5.376 11.136-13.15 26.336-37.088 26.336l-37.12 0c-20.416 0-37.088 16.641-37.088 37.057L31.938 349.6c0 20.385 16.642 37.024 37.088 37.024l37.12 0c19.361 0 26.945 9.056 29.89 17.376 22.239 62.432 56.64 120 110.976 144.224 20.576 9.152 43.04 11.488 43.04 11.488S295.553 668.64 254.465 753.152M236.001 275.36c30.688 0 55.584 24.928 55.584 55.646 0 30.688-24.896 55.584-55.584 55.584-30.752 0-55.648-24.896-55.648-55.584C180.353 300.256 205.249 275.36 236.001 275.36M195.713 800.832l29.983-61.601c25.791-53.024 31.393-118.368 32.416-153.216-7.521-2.08-15.872-4.864-24.097-8.512-54.432-24.256-97.056-77.664-126.688-158.784-0.32-0.032-0.704-0.032-1.12-0.032l-37.12 0C31.008 418.687 0 387.712 0 349.664l0-111.329c0-38.08 31.008-69.056 69.088-69.056l37.12 0c2.688 0 3.68-0.448 3.712-0.448l0 0c1.248-0.96 3.68-5.92 4.512-7.68 27.81-58.208 71.296-104.929 125.888-135.232l-10.398-27.424c-13.92-36.736 4.672-77.952 41.344-91.872l73.44-27.808c8.096-3.072 16.544-4.608 25.184-4.608 29.44 0 56.225 18.463 66.24 44.896 0.321 0.832 8.352 20 15.552 40.769 3.521-0.32 7.808-0.736 12.672-1.28 18.304-1.953 46.048-4.896 86.88-4.896 45.792 0 74.241 5.982 93.058 9.92 1.504 0.288 3.135 0.64 4.734 0.96 7.872-20.8 16.896-44.416 16.896-44.416l0 0c10.432-27.521 37.216-45.984 66.655-45.984 8.641 0 17.12 1.537 25.217 4.642l73.312 27.774c17.792 6.72 31.904 20 39.744 37.376 7.84 17.409 8.448 36.737 1.28 55.521-0.128 0.288-12.864 30.688-19.681 51.712 0.48 0.384 0.96 0.704 1.408 1.056l1.76 1.408c58.688 46.815 128.641 123.968 128.641 225.536 0 43.744-5.536 83.968-16.832 120.672 0.8 2.72 7.52 10.144 11.968 15.008 17.76 19.521 44.576 48.96 44.576 105.632 0 31.648-10.561 60.8-29.761 82.08-18.72 20.8-44.479 32.736-70.655 32.736-34.048 0-63.744-19.936-80.576-53.056-75.424 58.336-175.488 88.992-291.744 88.992-40.607 0-80.544-3.872-119.136-11.52-36.063 64.128-91.872 104.96-169.888 124.448L195.713 800.832 195.713 800.832zM907.2 517.184c-4.735 3.904-10.752 10.656-15.903 16.736 7.872 4.672 13.151 5.44 15.84 5.44 4.256 0 6.88-2.272 7.775-6.784C916.064 526.912 913.248 521.408 907.2 517.184L907.2 517.184zM236.001 307.36c-13.024 0-23.648 10.624-23.648 23.646 0 12.992 10.624 23.584 23.648 23.584 12.992 0 23.584-10.592 23.584-23.584C259.585 317.984 248.993 307.36 236.001 307.36L236.001 307.36z"  horiz-adv-x="1024" />

    
    <glyph glyph-name="star" unicode="&#58889;" d="M923.2 466.4H608l-97.6 304-97.6-304H97.6l256-185.6L256-21.6l256 187.2 256-187.2-100.8 302.4zM1024 500H633.6L512 874.4 390.4 500H0l315.2-230.4-121.6-374.4L512 125.6l316.8-232L707.2 268 1024 500zM512 165.6l-256-187.2 97.6 302.4-256 185.6h315.2l97.6 304 97.6-304h315.2l-256-185.6L768-21.6l-256 187.2z"  horiz-adv-x="1024" />

    
    <glyph glyph-name="faxian" unicode="&#59206;" d="M755.2 660.48c-10.24-2.56-240.64-94.72-335.36-186.88-92.16-92.16-181.76-325.12-186.88-335.36-2.56-10.24-2.56-20.48 5.12-28.16 5.12-5.12 10.24-7.68 17.92-7.68 2.56 0 5.12 0 10.24 2.56 10.24 2.56 240.64 94.72 335.36 186.88 92.16 92.16 181.76 325.12 186.88 335.36 2.56 10.24 2.56 20.48-5.12 28.16-7.68 7.68-17.92 10.24-28.16 5.12z m-189.44-330.24c-58.88-58.88-186.88-120.32-261.12-151.04 33.28 74.24 92.16 202.24 151.04 261.12 58.88 58.88 186.88 120.32 261.12 151.04-30.72-74.24-92.16-202.24-151.04-261.12zM512 384m-51.2 0a51.2 51.2 0 1 1 102.4 0 51.2 51.2 0 1 1-102.4 0ZM512 896C230.4 896 0 665.6 0 384s230.4-512 512-512c107.52 0 209.92 33.28 296.96 94.72 10.24 7.68 15.36 23.04 5.12 35.84-7.68 10.24-23.04 15.36-35.84 5.12-76.8-53.76-168.96-84.48-266.24-84.48-253.44 0-460.8 207.36-460.8 460.8S258.56 844.8 512 844.8s460.8-207.36 460.8-460.8c0-97.28-30.72-189.44-87.04-268.8-7.68-10.24-5.12-28.16 5.12-35.84 10.24-7.68 28.16-5.12 35.84 5.12C990.72 174.08 1024 276.48 1024 384 1024 665.6 793.6 896 512 896z"  horiz-adv-x="1024" />

    
    <glyph glyph-name="star1" unicode="&#58893;" d="M275.7 242.3c0.4 8.2-2.2 16.2-7.3 22.6l-167.7 210.1 251.3 72.4c8.1 2.3 15 7.6 19.4 14.9l137.5 229.4 142.2-226.1c4.5-7.2 11.5-12.4 19.7-14.5l252.7-66.5-163.3-214c-4.9-6.5-7.4-14.5-6.8-22.7l17.6-272-242.2 95.5c-3.9 1.5-8 2.3-12.1 2.3-4.4 0-8.7-0.9-12.8-2.6l-240.1-101 11.9 272.2zM509.4 743.9l120.6-191.7c7.9-12.6 20.2-21.6 34.5-25.4l216.5-57-140.7-184.2c-8.6-11.3-12.8-25.3-11.9-39.5l15.1-232.7-205.5 81c-6.8 2.7-14 4-21.3 4-7.8 0-15.3-1.5-22.5-4.5l-203.7-85.7 10.2 232.9c0.6 14.2-3.9 28.2-12.8 39.2l-144.4 181 215.4 62c14.2 4.1 26.3 13.4 33.9 26.1l116.6 194.5M508.5 832c-2.7 0-5.4-1.4-7.1-4.1l-151.5-252.8c-1.1-1.8-2.8-3.2-4.8-3.8l-275-79.2c-5.8-1.7-8-9-4.2-13.8l183-229.3c1.3-1.6 2-3.7 1.9-5.9l-13.1-298.1c-0.2-5.1 3.8-9 8.3-9 1 0 2.1 0.2 3.1 0.6l264.5 111.2c1 0.4 2.1 0.6 3.1 0.6s2-0.2 3-0.6l266.7-105.1c1-0.4 2-0.6 3-0.6 4.6 0 8.6 4 8.3 9.2l-19.3 298c-0.1 2.1 0.5 4.2 1.8 5.9l178.1 233.4c3.7 4.9 1.4 12.1-4.5 13.7l-276.6 72.8c-2 0.5-3.8 1.8-4.9 3.6l-156.8 249.4c-1.7 2.6-4.3 3.9-7 3.9zM291 20l177.8 95 179.4-32.9c4.8-1.3 9.7-1.9 14.7-1.9 16 0 31.5 6.7 42.4 18.4 9.9 10.6 15.6 24.6 15.8 39.1l7.5 106.5 15-230.9-205.5 81c-6.8 2.7-14 4-21.3 4-7.8 0-15.3-1.5-22.5-4.5l-203.7-85.7 0.4 11.9zM735.4 341.9l85.2 143.8 60.3-15.9-140.6-184.2c-5-6.6-8.6-14.1-10.5-22.1l5.6 78.4zM370.9 262.6l-130.8 226.6 49.5 14.3 124.6-215.8c4.1-7.1 1.7-16.4-5.5-20.5l-17.3-10c-7.1-4.2-16.4-1.7-20.5 5.4zM561.9 231.8l-177.3 307.1s-7.6-8.1-16.3-11.9c-3.3-2.4-29.2-9.3-29.2-9.3l177.7-307.7c4.1-7.1 13.3-9.6 20.5-5.5l17.3 10c7.1 4.1 9.6 13.4 7.3 17.3z"  horiz-adv-x="1024" />

    
    <glyph glyph-name="xingxing" unicode="&#58913;" d="M769.097-39.636c-4.457 0-8.93 1.063-13.026 3.216L512 91.896 267.93-36.42a28 28 0 0 0-40.627 29.518l46.614 271.776L76.46 457.347a27.999 27.999 0 0 0 15.519 47.76l272.878 39.651 122.035 247.27a27.998 27.998 0 0 0 50.216 0l122.035-247.27 272.878-39.651a28.002 28.002 0 0 0 15.518-47.76L750.083 264.874l46.613-271.776a28 28 0 0 0-27.599-32.734zM512 151.53c4.476 0 8.951-1.072 13.029-3.216l206.883-108.766-39.511 230.367a27.995 27.995 0 0 0 8.053 24.784l167.37 163.146-231.301 33.61a27.998 27.998 0 0 0-21.082 15.317L512 716.368 408.559 506.773a28 28 0 0 0-21.082-15.317l-231.301-33.61L323.547 294.7a28.004 28.004 0 0 0 8.053-24.784l-39.511-230.367L498.97 148.314A27.99 27.99 0 0 0 512 151.53z"  horiz-adv-x="1024" />

    
    <glyph glyph-name="shu" unicode="&#58894;" d="M940.8 729.6v-179.2h32c19.2 0 38.4-19.2 38.4-38.4s-19.2-38.4-38.4-38.4h-96c32-51.2 32-121.6 0-179.2h96c19.2 0 38.4-19.2 38.4-38.4s-19.2-38.4-38.4-38.4h-32v-179.2h32c19.2 0 38.4-19.2 38.4-38.4s-19.2-38.4-38.4-38.4H281.6c-128 0-198.4 153.6-134.4 256H51.2c-19.2 0-38.4 19.2-38.4 38.4s19.2 38.4 38.4 38.4h32V473.6H51.2C32 473.6 12.8 492.8 12.8 512s19.2 38.4 38.4 38.4h96c-64 102.4 6.4 256 134.4 256h691.2c19.2 0 38.4-19.2 38.4-38.4s-19.2-38.4-38.4-38.4h-32z m-198.4-256H128v-179.2h614.4c19.2 0 44.8 12.8 57.6 25.6 32 38.4 32 96 0 128-19.2 12.8-38.4 25.6-57.6 25.6z m153.6-256H281.6c-19.2 0-44.8-12.8-57.6-25.6-51.2-51.2-19.2-153.6 57.6-153.6H896v179.2z m0 332.8V729.6H281.6c-76.8 0-102.4-102.4-57.6-153.6 12.8-12.8 32-25.6 57.6-25.6H896z"  horiz-adv-x="1024" />

    
    <glyph glyph-name="lipin" unicode="&#59004;" d="M760.697687 581.503213H639.578142c25.681916 16.766872 48.564066 35.106566 60.010769 46.559409 22.795169 22.790052 36.390815 52.072983 36.390815 78.333066 0 17.797341-6.0416 33.19503-17.34504 44.474934-11.30958 11.348466-26.683732 17.344017-44.497447 17.344016-26.226315 0-55.527664-13.604856-78.316693-36.389791-0.961908-0.973164-70.362534-78.878488-82.909292-135.468345-0.505513-0.011256-0.940418-0.240477-1.440815-0.297782-3.413749 14.807241-11.038404 32.541137-23.51967 54.18611-17.521049 30.354332-42.097794 63.908542-59.791781 81.580017-22.784936 22.784936-52.057633 36.389792-78.305437 36.389791-17.779945 0-33.165354-5.994528-44.469817-17.309224-15.025205-15.003715-20.635993-37.719066-15.421225-62.32958 4.536316-21.330818 16.774035-42.814108 34.45472-60.502979 11.465123-11.458983 34.350342-29.798676 60.004629-46.565549H263.30129c-43.588751 0-79.050404-35.472909-79.050404-79.071893v-419.510516c0-43.621497 35.461653-79.049381 79.050404-79.049381h497.396397c43.621497 0 79.049381 35.434024 79.04938 79.049381v419.504376c0.005117 43.601031-35.427884 79.07394-79.04938 79.07394z m-131.735323 117.16856c16.754592 16.7198 34.32783 22.669302 45.173852 22.669302 3.527336 0 8.377808-0.624217 11.348465-3.613294 2.972705-2.971681 3.613294-7.803733 3.613295-11.342326 0-10.880815-5.948479-28.460192-22.65293-45.168736-23.849174-23.849174-78.722946-59.878762-106.878192-69.354578 9.201569 26.696012 43.850717 81.259722 69.39551 106.809632z m-80.612993-109.180632v-7.987928h-0.132006l-0.093121 8.011464c0.070608 0 0.138146-0.011256 0.225127-0.023536zM335.817883 698.294173c-1.837858 8.66945-0.836041 15.935947 2.707669 19.4684 2.961448 2.966565 7.794523 3.585665 11.326976 3.585665 10.885931 0 28.459169-5.955642 45.166689-22.670326 25.578562-25.549909 60.195987-80.119759 69.39551-106.810654-28.137851 9.481955-82.989109 45.505403-106.865913 69.355601-11.177574 11.183713-19.097964 24.697495-21.730931 37.071314z m139.81228-108.803032c0.076748 0.01228 0.150426 0.023536 0.212847 0.023536l-0.073678-8.011464h-0.140193v7.987928zM231.120356 82.914664V502.43132c0.016373 17.773805 14.413268 32.180933 32.180934 32.204469h226.859821v-483.894895H263.30129c-17.761526 0.017396-32.16456 14.412244-32.180934 32.17377z m561.757241 0c-0.011256-17.767666-14.412244-32.169677-32.17991-32.17991H537.040814V534.629649h223.656873c17.773805-0.017396 32.169677-14.430664 32.17991-32.204469v-419.510516z m0 0"  horiz-adv-x="1024" />

    
    <glyph glyph-name="icon36" unicode="&#58881;" d="M802.624474-15.608415000000036l-561.607111 0c-10.774756 0-19.493926 8.71917-19.493926 19.493926l0 370.369422-80.086281 0c-7.975822 0-15.153304 4.854519-18.103941 12.259556s-1.103644 15.875793 4.683852 21.357985l389.863348 370.369422c3.731911 3.559348 8.681244 5.254637 13.933985 5.368415 5.178785-0.151704 10.069333-2.322963 13.630578-6.090904l348.781985-368.14317c4.759704-3.559348 7.824119-9.233067 7.824119-15.629274 0-10.774756-8.71917-19.493926-19.493926-19.493926-0.094815-0.018963-0.246519-0.018963-0.381156 0l-60.059496 0 0-370.369422C822.1184-6.889243999999962 813.39923-15.608415000000036 802.624474-15.608415000000036zM260.509393 23.37754099999995l522.621156 0 0 370.369422c0 10.774756 8.71917 19.493926 19.493926 19.493926l34.226252 0-306.274607 323.29197-340.31123-323.29197 50.750578 0c10.774756 0 19.493926-8.71917 19.493926-19.493926L260.509393 23.37754099999995zM531.186726 81.914311c-75.269689 0-136.508681 61.182104-136.508681 136.394904s61.238993 136.394904 136.508681 136.394904c75.269689 0 136.508681-61.182104 136.508681-136.394904S606.456415 81.914311 531.186726 81.914311zM531.186726 315.718163c-53.777067 0-97.522726-43.68877-97.522726-97.408948s43.745659-97.408948 97.522726-97.408948 97.522726 43.68877 97.522726 97.408948S584.963793 315.718163 531.186726 315.718163zM589.780385 452.226844l-136.451793 0c-10.774756 0-19.493926 8.71917-19.493926 19.493926l0 58.479881c0 0.779378 0.037926 1.541689 0.132741 2.322963 0.246519 1.96077 6.41517 48.237985 64.056889 68.207881 2.055585 0.703526 4.207881 1.065719 6.377244 1.065719l29.0304 0c2.131437 0 4.245807-0.34323 6.263467-1.027793 2.036622-0.703526 49.950341-17.417481 68.207881-63.372326 0.895052-2.285037 1.371022-4.740741 1.371022-7.196444l0-58.479881C609.274311 460.946015 600.555141 452.226844 589.780385 452.226844zM472.822519 491.2128l97.465837 0 0 34.9696c-10.374637 22.063407-32.932978 33.333096-40.546607 36.625067l-21.890844 0c-27.964681-10.812681-33.979733-29.925452-35.026489-34.379852L472.824415 491.2128z"  horiz-adv-x="1024" />

    
    <glyph glyph-name="fillingstation" unicode="&#58905;" d="M877.625-9.75H146.375a28.125 28.125 0 1 0 0 56.25h731.25a28.125 28.125 0 1 0 0-56.25zM624.5-9.75H202.625a28.125 28.125 0 0 0-28.125 28.125V693.375c0 46.51875 37.85625 84.375 84.375 84.375h309.375c46.51875 0 84.375-37.85625 84.375-84.375v-675a28.125 28.125 0 0 0-28.125-28.125zM230.75 46.5h365.625V693.375c0 15.496875-12.6 28.125-28.125 28.125H258.875c-15.496875 0-28.125-12.628125-28.125-28.125v-646.875zM512 496.5H315.125a28.125 28.125 0 0 0-28.125 28.125V637.125a28.125 28.125 0 0 0 28.125 28.125h196.875a28.125 28.125 0 0 0 28.125-28.125v-112.5a28.125 28.125 0 0 0-28.125-28.125z m-168.75 56.25h140.625V609h-140.625v-56.25zM765.125 102.75c-46.51875 0-84.375 37.85625-84.375 84.375v253.125h-56.25a28.125 28.125 0 1 0 0 56.25h84.375a28.125 28.125 0 0 0 28.125-28.125v-281.25a28.125 28.125 0 0 1 56.25 0V569.23125l-76.134375 76.134375a28.096875 28.096875 0 1 0 39.76875 39.76875l84.375-84.375A28.040625 28.040625 0 0 0 849.5 580.875v-393.75c0-46.51875-37.85625-84.375-84.375-84.375z"  horiz-adv-x="1024" />

    
    <glyph glyph-name="hua" unicode="&#59177;" d="M512.3 383.6m-74.2 0a74.2 74.2 0 1 1 148.4 0 74.2 74.2 0 1 1-148.4 0ZM907.5 383.6c0 54.3-60.9 99-139.6 105.9 50.9 60.5 62.3 135.2 23.9 173.6-38.4 38.4-113.1 27-173.6-23.9-6.8 78.8-51.6 139.6-105.9 139.6-54.3 0-99-60.9-105.9-139.6-60.5 50.8-135.2 62.2-173.6 23.8-38.4-38.4-27-113.1 23.9-173.6-78.8-6.8-139.7-51.5-139.7-105.8s60.9-99 139.6-105.9c-50.9-60.5-62.3-135.2-23.9-173.6 38.4-38.4 113.1-27 173.6 23.9 6.8-78.8 51.6-139.6 105.9-139.6 54.3 0 99 60.9 105.9 139.6 60.5-50.9 135.2-62.3 173.6-23.9 38.4 38.4 27 113.1-23.9 173.6 78.8 6.8 139.7 51.6 139.7 105.9zM478 300.7c-3.7 11.5-9.7 21.8-18.2 30.3s-18.8 14.4-30.3 18.2c5.5 10.8 8.6 22.3 8.6 34.3 0 12-3.1 23.5-8.6 34.3 11.5 3.7 21.8 9.7 30.3 18.2s14.4 18.8 18.2 30.3c10.8-5.5 22.3-8.6 34.3-8.6 12 0 23.5 3.1 34.3 8.6 3.7-11.5 9.7-21.8 18.2-30.3s18.8-14.4 30.3-18.2c-5.5-10.8-8.6-22.3-8.6-34.3 0-12 3.1-23.5 8.6-34.3-11.5-3.7-21.8-9.7-30.3-18.2s-14.4-18.8-18.2-30.3c-10.8 5.5-22.3 8.6-34.3 8.6-12.1 0-23.6-3.1-34.3-8.6zM512.3-28.9c-55.3 0-103.1 52.4-118.6 125.9-63.5-41.8-133.2-44.9-173-5.1-39.1 39.1-35.9 110 5.1 173-73.5 15.5-125.9 63.4-125.9 118.7s52.4 103.1 125.9 118.7c-41 63-44.3 133.8-5.1 173 39.8 39.8 109.5 36.7 173-5.1C409.2 743.6 457 796 512.3 796c56.3 0 103.4-51.4 118.7-125.9 63 41 133.8 44.2 172.9 5.1 39.1-39.1 35.9-110-5.1-173 73.5-15.5 125.9-63.4 125.9-118.7s-52.4-103.1-125.9-118.7c41-63 44.3-133.8 5.1-173-39.1-39-109.9-35.7-172.9 5.2-15.3-74.4-62.4-125.9-118.7-125.9zM406.4 145.2c2.2 0 4.5-0.4 6.6-1.3 5.9-2.5 10-8 10.5-14.4 6.1-70.6 44.3-123.9 88.7-123.9s82.6 53.3 88.7 123.9c0.6 6.4 4.6 12 10.5 14.4 5.9 2.4 12.7 1.4 17.6-2.7 54.3-45.6 118.9-56.3 150.4-24.9 31.4 31.4 20.8 96.1-24.9 150.4-4.1 4.9-5.2 11.7-2.7 17.6 2.5 5.9 8 10 14.4 10.5 70.6 6.1 123.9 44.3 123.9 88.8s-53.3 82.6-123.9 88.8c-6.4 0.6-11.9 4.6-14.4 10.5s-1.4 12.7 2.7 17.6c45.6 54.3 56.3 118.9 24.9 150.4C748 682.3 683.3 671.7 629 626c-4.9-4.1-11.7-5.2-17.6-2.7-5.9 2.5-10 8-10.5 14.4-6.1 70.6-44.3 123.9-88.7 123.9s-82.6-53.3-88.7-123.9c-0.6-6.4-4.6-12-10.5-14.4-5.9-2.4-12.7-1.4-17.6 2.7-54.3 45.6-118.9 56.3-150.4 24.9-31.4-31.4-20.8-96.1 24.9-150.4 4.1-4.9 5.2-11.7 2.7-17.6-2.5-5.9-8-10-14.4-10.5-70.6-6.1-123.9-44.3-123.9-88.8s53.3-82.6 123.9-88.8c6.4-0.6 11.9-4.6 14.4-10.5s1.4-12.7-2.7-17.6c-45.6-54.3-56.3-118.9-24.9-150.4 31.4-31.4 96.1-20.7 150.4 24.9 3.1 2.6 7 4 11 4z m140.2 138.3c-2.7 0-5.4 0.6-7.8 1.9-17.6 8.9-35.4 8.9-53 0-4.5-2.3-9.7-2.5-14.4-0.6-4.6 1.9-8.2 5.8-9.8 10.6-3 9.4-7.7 17.3-14 23.5-6.2 6.2-14.2 10.9-23.5 14-4.8 1.6-8.6 5.1-10.6 9.8-1.9 4.7-1.7 9.9 0.6 14.4 4.5 8.8 6.7 17.7 6.7 26.5s-2.3 17.7-6.7 26.5c-2.3 4.5-2.5 9.7-0.6 14.4 1.9 4.6 5.8 8.2 10.6 9.8 9.4 3 17.3 7.7 23.5 14 6.2 6.2 10.9 14.1 14 23.5 1.6 4.8 5.1 8.6 9.8 10.6 4.6 1.9 9.9 1.7 14.4-0.6 17.5-8.9 35.5-8.9 53 0 4.5 2.3 9.7 2.5 14.4 0.6 4.6-1.9 8.2-5.8 9.8-10.6 3-9.3 7.7-17.2 14-23.5 6.2-6.2 14.1-10.9 23.5-14 4.8-1.6 8.6-5.1 10.6-9.8 1.9-4.7 1.7-9.9-0.6-14.4-4.5-8.8-6.7-17.7-6.7-26.5s2.3-17.7 6.7-26.5c2.3-4.5 2.5-9.7 0.6-14.4-1.9-4.6-5.8-8.2-10.6-9.8-9.4-3-17.3-7.7-23.5-14-6.2-6.2-10.9-14.2-14-23.5-1.6-4.8-5.1-8.6-9.8-10.6-2.1-0.8-4.4-1.3-6.6-1.3z m-34.3 43c8.5 0 16.9-1.2 25.2-3.7 4.1 7.6 9.2 14.4 15.2 20.4 6 6 12.8 11 20.4 15.2-2.4 8.3-3.7 16.7-3.7 25.2 0 8.4 1.2 16.9 3.7 25.2-7.6 4.1-14.4 9.2-20.4 15.2s-11.1 12.8-15.2 20.4c-16.6-4.9-33.7-4.9-50.3 0-4.1-7.6-9.2-14.4-15.2-20.4-6-6-12.8-11.1-20.4-15.2 2.4-8.3 3.7-16.7 3.7-25.2 0-8.4-1.2-16.9-3.7-25.2 7.6-4.1 14.4-9.2 20.4-15.2 6-6 11.1-12.8 15.2-20.4 8.2 2.5 16.6 3.7 25.1 3.7z"  horiz-adv-x="1024" />

    
    <glyph glyph-name="qi" unicode="&#59141;" d="M347.209328 42.029488c-56.742329 41.310871-101.378945 78.293157-134.88199 124.372635-38.619576 53.119825-57.397245 113.423259-57.397245 184.348612v349.121376h16.3729c4.492314 0.153496 112.563682 5.116531 332.881506 126.378315l7.644097 4.297886 7.644098-4.297886c220.36899-121.282251 328.921311-126.22482 333.434091-126.378315h15.820314v-349.121376c0-70.925353-18.777669-131.228787-57.397245-184.348612-33.503045-46.048779-78.160127-83.051531-134.88199-124.372635l-164.619268-106.720603-164.619268 106.720603z m159.01155 749.121536c-160.771637-86.981027-262.887362-112.717178-309.458027-120.330576l-9.885138-1.616824v-320.397171c0-128.435161 66.361407-200.639646 180.981934-281.951557l0.163729-0.122796 145.462976-95.709829 145.524375 95.760994 0.23536 0.163729c115.490338 84.248799 178.055279 154.171312 178.055279 282.145985l-0.573052 320.120878-9.864672 1.616824c-46.560432 7.623631-148.686391 33.380248-309.458027 120.330576l-5.607718 3.069918-5.577019-3.080151zM529.207405 629.474784c31.66621-42.72508 57.803497-69.867254 98.517781-100.528578 40.714284-31.163767 75.397201-50.767244 124.152625-70.37072-10.55438-11.057847-15.078417-18.095124-20.104897-32.67212-50.263777 25.1324-84.444251 46.243207-122.141828 74.893734-40.21184 31.66621-65.343217 56.798611-97.512894 100.026134-36.69269-49.25889-56.798611-70.369697-99.523691-104.046704-36.69269-29.15297-57.302077-42.221614-111.586424-70.873164-6.534833 14.074553-12.063757 22.61916-21.110807 30.15888 61.825091 28.650527 107.063411 58.809407 149.787468 100.026134 35.184337 33.174564 56.798611 62.829977 74.39129 99.523691l32.672121-15.581883-7.540744-10.555404z m153.306618-393.569704c26.137287 0 41.215704 1.004887 57.301054 3.518127v-37.697577c-15.07944 2.51324-32.67212 3.518127-57.301054 3.518127H350.76941c-25.634844 0-42.72508-1.004887-57.80452-3.518127V239.423207c14.576997-2.512217 30.15888-3.518127 56.296167-3.518127h35.687804V364.079298c0 23.121604-1.004887 39.708374-3.518127 55.792701h39.708374c-2.51324-15.581883-3.518127-31.163767-3.518127-55.792701v-128.174218h93.492324V452.544119c0 24.12649-1.004887 38.703487-3.518127 54.787814h40.211841c-2.51324-15.581883-3.518127-29.655414-3.518127-54.285371v-57.80452h88.464821c24.628934 0 39.20593 1.004887 51.269687 3.015683v-36.69269c-13.571087 2.010797-27.64564 3.015683-51.269687 3.015683h-88.464821v-128.676661h138.225131z"  horiz-adv-x="1024" />

    
    <glyph glyph-name="changyonglogo401" unicode="&#58884;" d="M524.03538791 39.24794460999999c-140.67279135-7.62602489-264.43103892 77.05823604-318.38381701 192.510447-59.29206711 126.86228588-48.10723308 252.11785174 36.54484966 363.90184787 80.70070835 106.571271 192.87512316 148.90803807 325.72024464 133.04247535 65.94419188-7.87700625 124.08002087-34.95100098 174.76358493-77.96778189 27.49873395-23.35429689 26.88522108-33.79047173-3.60171402-51.28635238-26.49051121-15.2091449-53.11402211-30.17803298-79.46724465-45.62743454-72.86016929-42.68428293-146.17082046-84.62848681-218.18150923-128.71784472-38.56344172-23.5966981-46.27527019-61.24201384-24.72076012-100.29884021 23.31782763-42.24023465 68.52266739-52.07362325 116.41752874-24.38397101 142.31812307 82.30313924 284.16002375 165.42358101 426.9264841 246.95232057 23.62244066 13.48658562 26.21807641 27.20913893 15.72183639 50.06790451-36.93097929 80.41754887-91.31922338 146.47328897-164.20084411 195.88692012-161.04317624 109.18835821-332.87433424 126.68209434-508.84135128 43.73755308-175.54442021-82.74718542-270.9029702-228.05350951-286.75565951-419.56216938-13.13478074-158.76287814 47.27276827-293.18254345 161.86691634-403.80386584 159.77324532-154.22802023 426.79133993-178.49615203 610.31573445-54.50837445 47.78760435 32.27384855 47.78760435 32.27384855 18.15873215 81.56949588-32.03573639 53.28563553-63.82477834 63.18981399-119.43790805 36.52983385C634.25771349 52.071678760000054 579.70858069 35.684844360000056 524.03538791 39.24794460999999zM1007.10270892 264.86026935999996c-2.64712088 38.13870044-23.32855438 69.11902005-41.1762378 101.06036854-5.82624007 10.43188582-15.17482214 6.41830166-23.51732808 1.65820498-32.71145907-18.72719775-65.32209673-37.61528213-98.28239468-55.88770688-14.01000388-7.76760467-16.48765577-17.17410531-8.38755327-30.82801321 18.77224715-31.64102657 37.40720151-63.36571645 55.40504694-95.44220896 7.82123212-13.93492288 17.20199232-17.12262228 30.6993047-8.5891982 19.70967793 12.45691142 40.05646895 24.01071266 59.08398862 37.42650834C997.85280382 226.20673289 1007.79773853 242.99471067000002 1007.10270892 264.86026935999996z"  horiz-adv-x="1024" />

    
    <glyph glyph-name="shu1" unicode="&#58886;" d="M940.8 729.6v-179.2h32c19.2 0 38.4-19.2 38.4-38.4s-19.2-38.4-38.4-38.4h-96c32-51.2 32-121.6 0-179.2h96c19.2 0 38.4-19.2 38.4-38.4s-19.2-38.4-38.4-38.4h-32v-179.2h32c19.2 0 38.4-19.2 38.4-38.4s-19.2-38.4-38.4-38.4H281.6c-128 0-198.4 153.6-134.4 256H51.2c-19.2 0-38.4 19.2-38.4 38.4s19.2 38.4 38.4 38.4h32V473.6H51.2C32 473.6 12.8 492.8 12.8 512s19.2 38.4 38.4 38.4h96c-64 102.4 6.4 256 134.4 256h691.2c19.2 0 38.4-19.2 38.4-38.4s-19.2-38.4-38.4-38.4h-32z m-198.4-256H128v-179.2h614.4c19.2 0 44.8 12.8 57.6 25.6 32 38.4 32 96 0 128-19.2 12.8-38.4 25.6-57.6 25.6z m153.6-256H281.6c-19.2 0-44.8-12.8-57.6-25.6-51.2-51.2-19.2-153.6 57.6-153.6H896v179.2z m0 332.8V729.6H281.6c-76.8 0-102.4-102.4-57.6-153.6 12.8-12.8 32-25.6 57.6-25.6H896z"  horiz-adv-x="1024" />

    
    <glyph glyph-name="shaixuan" unicode="&#59371;" d="M827.112727 760.692364l-260.933818-324.189091v-429.381818l-116.363636 101.794909V436.48L188.858182 760.692364a11.124364 11.124364 0 0 0-1.419637 12.334545 11.101091 11.101091 0 0 0 10.472728 6.586182H818.036364a11.170909 11.170909 0 0 0 10.519272-6.609455 11.170909 11.170909 0 0 0-1.442909-12.311272M818.036364 849.454545H197.934545c-31.650909 0-59.810909-17.687273-73.472-46.266181a80.872727 80.872727 0 0 1 10.007273-86.248728L379.997091 411.927273v-308.247273c0-16.802909 7.214545-32.791273 19.851636-43.799273l139.636364-122.181818a57.786182 57.786182 0 0 1 62.370909-9.192727 57.576727 57.576727 0 0 1 34.141091 52.992V411.927273L881.501091 716.916364a80.872727 80.872727 0 0 1 10.007273 86.248727A80.779636 80.779636 0 0 1 818.036364 849.454545"  horiz-adv-x="1024" />

    
    <glyph glyph-name="dingdan" unicode="&#58928;" d="M457.142857 694.857143h365.714286c40.228571 0 73.142857-32.914286 73.142857-73.142857v-402.285715c0-120.685714-98.742857-219.428571-219.428571-219.428571h-365.714286c-40.228571 0-73.142857 32.914286-73.142857 73.142857v402.285714c0 120.685714 98.742857 219.428571 219.428571 219.428572zM621.714286-54.857143H256c-80.457143 0-146.285714 65.828571-146.285714 146.285714V530.285714c0 160.914286 131.657143 292.571429 292.571428 292.571429h365.714286c80.457143 0 146.285714-65.828571 146.285714-146.285714v-438.857143c0-160.914286-131.657143-292.571429-292.571428-292.571429zM402.285714 768c-131.657143 0-237.714286-106.057143-237.714285-237.714286v-438.857143c0-51.2 40.228571-91.428571 91.428571-91.428571h365.714286c131.657143 0 237.714286 106.057143 237.714285 237.714286V676.571429c0 51.2-40.228571 91.428571-91.428571 91.428571H402.285714zM394.971429 493.714286h91.428571c14.628571 0 29.257143-10.971429 29.257143-29.257143 0-14.628571-10.971429-29.257143-29.257143-29.257143h-91.428571c-14.628571 0-29.257143 10.971429-29.257143 29.257143s10.971429 29.257143 29.257143 29.257143zM394.971429 329.142857h237.714285c14.628571 0 29.257143-10.971429 29.257143-29.257143 0-14.628571-10.971429-29.257143-29.257143-29.257143h-237.714285c-14.628571 0-29.257143 10.971429-29.257143 29.257143s10.971429 29.257143 29.257143 29.257143z"  horiz-adv-x="1024" />

    
    <glyph glyph-name="zhongchou" unicode="&#58974;" d="M959-32.2L813.3 219.5l1.7 1.5c16.6 13.8 30.2 31.3 39.5 50.8 9.4 19.8 14.4 41.8 14.4 63.6 0 82-66.9 148.7-149.1 148.7-17.9 0-35.3-3.1-52-9.3l-2.1-0.8-56.6 97.9 1.7 1.5c32.5 28.2 51.2 69.1 51.2 112 0 82-66.9 148.7-149.1 148.7-82.2 0-149.1-66.7-149.1-148.7 0-42.3 18.2-82.7 50-110.9l1.6-1.5-57.4-99.1-2.1 0.8c-16.6 6.2-34.1 9.4-52 9.4-82.2 0-149.1-66.7-149.1-148.7 0-21.8 5-43.8 14.5-63.6 9.3-19.5 23-37.1 39.6-50.9l1.8-1.5L65-32.2c-3-5.2-3.8-11.3-2.3-17.1 1.6-5.8 5.3-10.7 10.5-13.7l0.1-0.1c3.5-1.9 7.4-3 11.2-3 8.1 0 15.6 4.3 19.5 11.2l145.6 251.6 2.1-0.8c16.7-6.2 34.2-9.4 52.1-9.4 17.8 0 35.3 3.1 51.9 9.3l2.1 0.8L456 27.1c4-6.9 11.5-11.3 19.7-11.3 3.9 0 7.8 1 11.3 3 5.2 3 8.9 7.9 10.5 13.7 1.5 5.8 0.7 11.9-2.3 17L397 219.2l1.8 1.5c27.6 22.8 46.1 54.7 52.1 89.8l0.4 2.2h121.1l0.4-2.2c6-35.1 24.5-67.1 52.2-89.9l1.8-1.5-98.1-169.5c-3-5.2-3.8-11.3-2.3-17.1 1.6-5.8 5.3-10.7 10.5-13.7l0.1-0.1c3.4-1.9 7.3-2.9 11.2-2.9 8.1 0 15.6 4.3 19.6 11.2l98.1 169.4 2.1-0.8c16.6-6.2 34-9.3 51.8-9.3 18 0 35.6 3.2 52.3 9.5l2.1 0.8L919.8-55c4-7 11.5-11.3 19.6-11.3 4 0 7.9 1.1 11.3 3.1 5.2 3 9 7.9 10.5 13.8 1.6 6 0.8 12.1-2.2 17.2zM766.6 242.9s-0.9-0.5-1-0.5c-13.9-6.8-29.7-10.4-45.6-10.4-18.4 0-36.3 4.8-51.8 13.7l-6.2 3.6-0.1 0.1c-28.8 19.4-46 51.5-46 86 0 2 0.1 4 0.2 6.4 0 0.3 0 0.6 0.1 0.8v0.6c0.2 2 0.3 3.7 0.5 5.4l0.1 0.8c4.3 31.5 23.4 59.8 51.1 75.8l2.7 1.6c15 8.1 32 12.3 49.1 12.3 57.3 0 103.9-46.5 103.9-103.7 0-37.1-20.2-71.7-52.8-90.1-1.3-0.9-2.7-1.7-4.2-2.4zM359 247.6l-3.2-1.9c-15.5-9-33.4-13.8-51.8-13.8s-36.4 4.8-51.9 13.8l-2.5 1.5c-31 19.1-49.5 52-49.5 88.2 0 57.2 46.6 103.7 103.9 103.7 17.7 0 35.2-4.6 50.7-13.2l1.2-0.7c27.6-16 46.7-44.3 51-75.7l0.1-0.9c0.2-1.7 0.4-3.4 0.5-5.3l0.1-0.7c0-0.3 0-0.5 0.1-0.8 0.1-2.3 0.2-4.4 0.2-6.3 0-36-18.3-68.8-48.9-87.9z m153.8 541.3c57.3 0 103.9-46.5 103.9-103.7 0-34.3-17-66.3-45.5-85.7l-3.8-2.4c-16.2-10-35.1-15.3-54.6-15.3-20 0-39.4 5.5-55.8 16l-2.9 1.8c-28.3 19.4-45.2 51.4-45.2 85.5 0 57.3 46.6 103.8 103.9 103.8z m-113.9-339l-1.8 1.5 56.4 97.5 2.2-0.9c18.1-7.5 37.3-11.3 57.1-11.3 19.2 0 37.9 3.6 55.6 10.7l2.2 0.9 56-96.8-1.8-1.5c-27.6-22.8-46.1-54.7-52-89.8l-0.4-2.2H451.3l-0.4 2.2c-5.9 35-24.4 66.9-52 89.7z"  horiz-adv-x="1024" />

    
    <glyph glyph-name="xiangji" unicode="&#59026;" d="M835.7 649.4h-90c-2.3 5.2-11.7 26.8-16.1 36.2-13.3 27.8-21.4 39-48.7 39H345.4c-26.7 0-38.3-10.9-54.1-50.6-3.6-9.1-9-21-10.7-24.7h-92.5c-50.8 0-92.2-41.3-92.2-92.2V136c0-50.8 41.4-92.1 92.2-92.1h647.6c50.9 0 92.2 41.3 92.2 92.1V557.3c0 50.8-41.4 92.1-92.2 92.1z m-705.9-92.1c0 32.1 26.2 58.3 58.4 58.3h99.4c12.3 0 16.5 5.5 19.1 11.5 4.8 10.7 8.1 18.6 11.2 26.2 1.7 4.2 3.5 8.3 5.4 12.9 0.4 0.9 0.8 1.9 1.2 3 3.2 8.1 8.5 21.7 20.9 21.7h334.4c10.9 0 14.4-8 17.4-15.1l0.6-1.4c2.1-4.6 5.2-11.7 8.4-18.9 5.3-12 10.9-24.5 12.5-28.4 2.9-6.8 9.4-11.5 16.3-11.5h100.6c32.2 0 58.4-26.2 58.4-58.3V136c0-32.1-26.2-58.3-58.4-58.3H188.1c-32.2 0-58.4 26.2-58.4 58.3l0.1 421.3z m0 0M511.9 157.4c104.3 0 189.1 84.8 189.1 189.1s-84.8 189.1-189.1 189.1-189.1-84.8-189.1-189.1 84.8-189.1 189.1-189.1z m0 345.4c86.2 0 156.3-70.1 156.3-156.3 0-86.2-70.1-156.3-156.3-156.3-86.2 0-156.3 70.1-156.3 156.3 0 86.2 70.1 156.3 156.3 156.3z m243.9-1H798c9.3 0 16.9 7.6 16.9 16.9 0 9.3-7.6 16.9-16.9 16.9h-42.3c-9.3 0-16.9-7.6-16.9-16.9 0-9.4 7.6-16.9 17-16.9z m0 0"  horiz-adv-x="1024" />

    
    <glyph glyph-name="shujia" unicode="&#58934;" d="M132.8 805.8h360.5v-260.6H132.8zM521.1 525.8h360.5v-297.1H521.1zM132.8 228.7h360.5v-268.9H132.8zM888.9-63.2H133c-19.3 0-35 15.7-35 35v822c0 19.3 15.7 35 35 35h755.9c19.3 0 35-15.7 35-35v-822c0-19.3-15.7-35-35-35z m-744.9 46h733.9v800H144v-800zM885.7 517H136.3c-12.7 0-23 10.3-23 23s10.3 23 23 23h749.4c12.7 0 23-10.3 23-23s-10.3-23-23-23zM885.7 202.5H136.3c-12.7 0-23 10.3-23 23s10.3 23 23 23h749.4c12.7 0 23-10.3 23-23s-10.3-23-23-23zM511-47.2c-12.7 0-23 10.3-23 23V802.1c0 12.7 10.3 23 23 23s23-10.3 23-23v-826.3c0-12.7-10.3-23-23-23zM269.1 233c-10.3 0-19.7 7-22.3 17.4l-27 108.1c-3.1 12.3 4.4 24.8 16.7 27.9 12.3 3.1 24.8-4.4 27.9-16.7l27-108.1c3.1-12.3-4.4-24.8-16.7-27.9-1.9-0.5-3.8-0.7-5.6-0.7zM200.1 232c-10.3 0-19.7 7-22.3 17.4l-27 108.1c-3.1 12.3 4.4 24.8 16.7 27.9 12.3 3.1 24.8-4.4 27.9-16.7l27-108.1c3.1-12.3-4.4-24.8-16.7-27.9-1.9-0.5-3.8-0.7-5.6-0.7zM663.5 523.9c-10.3 0-19.7 7-22.3 17.4l-27 108.1c-3.1 12.3 4.4 24.8 16.7 27.9 12.3 3.1 24.8-4.4 27.9-16.7l27-108.1c3.1-12.3-4.4-24.8-16.7-27.9-1.9-0.5-3.8-0.7-5.6-0.7zM594.5 522.9c-10.3 0-19.7 7-22.3 17.4l-27 108.1c-3.1 12.3 4.4 24.8 16.7 27.9 12.3 3.1 24.8-4.4 27.9-16.7l27-108.1c3.1-12.3-4.4-24.8-16.7-27.9-1.9-0.5-3.8-0.7-5.6-0.7zM674.3-46c-10.3 0-19.7 7-22.3 17.4l-27 108.1c-3.1 12.3 4.4 24.8 16.7 27.9 12.3 3.1 24.8-4.4 27.9-16.7l27-108.1c3.1-12.3-4.4-24.8-16.7-27.9-1.8-0.5-3.7-0.7-5.6-0.7zM605.3-47c-10.3 0-19.7 7-22.3 17.4l-27 108.1c-3.1 12.3 4.4 24.8 16.7 27.9 12.3 3.1 24.8-4.4 27.9-16.7l27-108.1c3.1-12.3-4.4-24.8-16.7-27.9-1.9-0.5-3.7-0.7-5.6-0.7zM680.5 447c-8.2 0-14.9 6.6-15 14.9-0.1 8.3 6.6 15.1 14.9 15.1l19.7 0.2h0.1c8.2 0 14.9-6.6 15-14.9 0.1-8.3-6.6-15.1-14.9-15.1l-19.7-0.2h-0.1zM833.2 270.8c-8.3 0-15 6.7-15 15V412.7c-1 14.9-6.3 24.6-16.2 29.8-7.3 3.8-14.6 3.8-14.6 3.8h-37c-8.3 0-15 6.7-15 15s6.7 15 15 15h36.4c2.6 0 15.6-0.1 29.1-7.2 13.7-7.1 30.4-22.5 32.3-55v-128.2c0-8.4-6.7-15.1-15-15.1z"  horiz-adv-x="1024" />

    
    <glyph glyph-name="dizhi1" unicode="&#58892;" d="M512.768-128H512a65.536 65.536 0 0 0-47.283 20.224c-9.677 10.112-97.434 102.656-184.73 219.904C162.15 270.336 102.4 396.544 102.4 487.091 102.4 712.576 286.157 896 512 896s409.6-183.424 409.6-408.883c0-54.784-21.12-121.907-62.746-199.45-40.166-74.777-100.556-161.638-179.532-258.201l-0.64-0.768-117.53-134.4A64.589 64.589 0 0 0 512.768-128zM512 295.706c105.728 0 191.744 85.862 191.744 191.41S617.728 678.529 512 678.529s-191.744-85.862-191.744-191.411S406.272 295.706 512 295.706z"  horiz-adv-x="1024" />

    
    <glyph glyph-name="dizhi" unicode="&#58882;" d="M514.878 806.766c-177.908 0-322.133-142.358-322.133-317.969s322.133-522.38 322.133-522.38 322.133 346.77 322.133 522.38-144.225 317.969-322.133 317.969zM514.878 330.56899999999996c-85.087 0-154.064 68.977-154.064 154.064s68.978 154.064 154.064 154.064 154.064-68.977 154.064-154.064c0-85.087-68.978-154.064-154.064-154.064z"  horiz-adv-x="1024" />

    
    <glyph glyph-name="huangguanwangguanhuiyuanshenfendengjirenzhengmianxing" unicode="&#58885;" d="M199.111111 42.66666699999996h625.777778a56.888889 56.888889 0 0 0-56.888889-56.888889H256a56.888889 56.888889 0 0 0-56.888889 56.888889z m-13.368889 56.888889L75.832889 509.895111a54.328889 54.328889 0 0 0 11.008 49.208889 28.558222 28.558222 0 0 0 40.192 3.413333l207.616-174.222222L463.502222 611.555556a56.888889 56.888889 0 0 0 98.531556 0l128.711111-222.947556 207.36 173.994667a28.814222 28.814222 0 0 0 40.362667-3.271111 53.76 53.76 0 0 0 11.207111-49.038223L839.594667 99.55555600000002H185.799111zM512 668.444444a56.888889 56.888889 0 1 0 0 113.777778 56.888889 56.888889 0 0 0 0-113.777778z m426.666667-85.333333a56.888889 56.888889 0 1 0 0 113.777778 56.888889 56.888889 0 0 0 0-113.777778zM85.333333 583.1111109999999a56.888889 56.888889 0 1 0 0 113.777778 56.888889 56.888889 0 0 0 0-113.777778z"  horiz-adv-x="1024" />

    
    <glyph glyph-name="dianying" unicode="&#58955;" d="M736.1 664v-560H120V664h616.1m0 56H120c-30.9 0-56-25.1-56-56v-560c0-30.9 25.1-56 56-56h616.1c30.9 0 56 25.1 56 56V664c0 30.9-25.1 56-56 56zM904 547.9v-327.8l-111.9 52.5V495.4L904 547.9m28 72.1c-3.9 0-8-0.8-11.9-2.7l-184-86.3v-294l184-86.3c3.9-1.8 8-2.7 11.9-2.7 14.7 0 28 11.9 28 28V591.9c0 16.2-13.3 28.1-28 28.1zM344 440c30.9 0 56-25.1 56-56s-25.1-56-56-56-56 25.1-56 56 25.1 56 56 56m0 56c-61.9 0-112-50.1-112-112s50.1-112 112-112 112 50.1 112 112-50.1 112-112 112z"  horiz-adv-x="1024" />

    
    <glyph glyph-name="qicheqianlian-" unicode="&#58883;" d="M908.629333 152.23466699999994H257.877333c-19.285333 0-37.376 7.509333-50.858666 21.162666-13.482667 13.653333-20.992 31.573333-20.821334 50.858667l2.389334 479.232c0 19.114667-6.656 31.914667-39.765334 37.205333h-0.170666l-95.573334 16.384c-9.216 1.536-15.530667 10.410667-13.994666 19.626667 1.536 9.216 10.410667 15.530667 19.626666 13.994667l95.402667-16.384c45.397333-7.168 68.437333-31.061333 68.437333-70.997334L220.16 223.914667c0-10.069333 3.754667-19.456 10.922667-26.453334 7.168-7.168 16.554667-11.093333 26.624-11.093333h650.752c9.386667 0 17.066667-7.68 17.066666-17.066667s-7.509333-17.066667-16.896-17.066666zM859.989333 250.19733299999996l-602.624 1.877334c-18.944 0.170667-36.693333 7.509333-50.005333 20.992-13.312 13.482667-20.48 31.232-20.48 50.176l1.877333 353.962666L870.570667 626.346667c30.890667-1.194667 55.125333-26.282667 55.125333-57.173334V315.733333c0-36.181333-29.525333-65.536-65.706667-65.536zM257.706667 286.20799999999997l602.453333-1.877333c17.408 0 31.573333 14.165333 31.573333 31.402666V569.173333c0 12.458667-9.898667 22.698667-22.357333 23.04h-0.682667l-645.632 48.128-1.536-317.44c0-9.728 3.754667-18.944 10.581334-25.941333 6.485333-6.826667 15.701333-10.752 25.6-10.752zM324.096 95.91466700000001m-63.658667 0a63.658667 63.658667 0 1 1 127.317334 0 63.658667 63.658667 0 1 1-127.317334 0ZM324.096 15.189333000000033c-44.544 0-80.725333 36.181333-80.725333 80.725334s36.181333 80.725333 80.725333 80.725333c44.544 0 80.725333-36.181333 80.725333-80.725333s-36.181333-80.725333-80.725333-80.725334z m0 127.317334c-25.770667 0-46.592-20.821333-46.592-46.592s20.821333-46.592 46.592-46.592 46.592 20.821333 46.592 46.592-20.821333 46.592-46.592 46.592zM812.714667 95.91466700000001m-63.658667 0a63.658667 63.658667 0 1 1 127.317333 0 63.658667 63.658667 0 1 1-127.317333 0ZM812.714667 15.189333000000033c-44.544 0-80.725333 36.181333-80.725334 80.725334s36.181333 80.725333 80.725334 80.725333 80.725333-36.181333 80.725333-80.725333-36.181333-80.725333-80.725333-80.725334z m0 127.317334c-25.770667 0-46.592-20.821333-46.592-46.592s20.821333-46.592 46.592-46.592 46.592 20.821333 46.592 46.592-20.821333 46.592-46.592 46.592zM710.314667 478.037333H362.496c-9.386667 0-17.066667 7.68-17.066667 17.066667s7.68 17.066667 17.066667 17.066667h347.818667c9.386667 0 17.066667-7.68 17.066666-17.066667s-7.68-17.066667-17.066666-17.066667zM710.314667 379.904H362.496c-9.386667 0-17.066667 7.68-17.066667 17.066667s7.68 17.066667 17.066667 17.066666h347.818667c9.386667 0 17.066667-7.68 17.066666-17.066666s-7.68-17.066667-17.066666-17.066667z"  horiz-adv-x="1024" />

    
    <glyph glyph-name="xiajianjiao" unicode="&#58976;" d="M512.025 97.8L12.525 597.3c-16.7 16.7-16.7 43.6 0 60.3 16.7 16.7 43.6 16.7 60.3 0L512.025 218.5l439.1 439c16.7 16.7 43.6 16.7 60.3 0 16.7-16.7 16.7-43.6 0-60.3L512.025 97.8z m0 0"  horiz-adv-x="1024" />

    
    <glyph glyph-name="youxi" unicode="&#58888;" d="M864.03 856.75q-5.24 4.2-45.09 25.7-39.84 21.49-81.77 8.9-12.59-4.19-28.84-12.58T674.26 859.9q-33.55-19.92-72.87-38.79-39.32-18.88-76.02-14.67h-19.93q-14.68 0-65.53 9.44-50.85 9.43-134.73 60.81-14.68 9.43-31.98 13.1t-34.07 1.57q-37.75-5.24-95.94-44.55Q85 807.5 51.45 689.01q-28.31-103.8-40.37-194.5Q-0.97 403.82 0.07 329.38q1.04-74.44 13.11-129.49 12.06-55.04 30.93-86.5 11.53-18.87 25.68-30.93 14.16-12.06 30.94-16.25h16.77q51.38 0 104.33 48.23 52.95 48.23 86.5 89.12 19.92 25.16 45.08 41.94 25.17 16.78 54.52 24.12 19.92 5.24 40.37 6.81 20.44 1.57 40.38 0.52h68.15q19.92 0 43.51-1.05 23.59-1.04 41.41-6.28 18.88-6.3 43-32.51 24.12-26.21 47.17-53.47 24.12-27.26 49.28-54 25.17-26.74 49.28-41.41 32.5-17.83 61.34-21.5 28.83-3.67 52.94 9.97 32.51 15.72 51.38 59.23 18.87 43.52 24.12 111.67 5.24 65 3.14 153.07t-18.88 175.62q-16.77 87.54-50.32 163.04-33.55 75.5-90.17 117.43z m110.09-604.97q-4.19-52.42-16.25-86.49-12.06-34.08-33.03-44.57-15.72-9.44-34.6-3.67-18.88 5.77-33.55 13.11-19.92 10.48-41.42 35.12-21.5 24.64-43.5 49.8-29.36 34.6-57.67 63.96-28.31 29.36-57.67 36.7-23.06 5.24-49.27 6.29-26.21 1.05-48.24 1.05h-66.06q-23.07 1.05-47.19-1.58-24.12-2.63-47.18-8.91-36.7-8.38-68.15-29.88-31.46-21.5-56.62-52.96-47.18-58.71-91.22-90.69-44.04-31.98-67.1-25.69-6.29 1.05-12.58 6.81-6.3 5.77-12.59 15.21-16.77 28.31-26.73 80.74-9.96 52.42-9.96 122.14T65.6 492.92q12.05 84.93 37.21 179.29 25.17 94.37 68.68 128.44Q215 834.72 251.7 839.96h7.34q7.34 0 13.1-1.57 5.77-1.58 11.01-5.77 90.17-56.62 148.36-68.16 58.19-11.53 79.16-9.43h11.54q48.23-4.19 94.36 17.3 46.13 21.49 83.88 43.5 16.77 9.44 30.92 17.3 14.15 7.87 22.55 8.91 22.02 6.29 48.23-6.3 26.21-12.58 37.75-19.92 49.28-36.69 77.59-107.99 28.3-71.3 42.46-153.08 14.16-81.78 15.73-163.56 1.58-81.78-1.57-139.45zM378.59 558.99h-73.4v76.54q0 12.58-8.38 20.97-8.38 8.38-20.98 8.38h-2.09q-12.58 0-20.97-8.38-8.39-8.38-8.39-20.97v-76.54h-73.39q-12.59 0-20.98-7.87-8.38-7.87-8.38-20.44v-5.25q0-12.58 8.38-20.96 8.39-8.39 20.98-8.39h73.39v-75.49q0-12.59 8.39-20.97 8.39-8.38 20.97-8.38h2.09q12.59 0 20.98 8.38 8.38 8.38 8.38 20.97v75.49h73.4q12.58 0 20.97 8.39 8.38 8.38 8.38 20.96v5.25q0 10.48-8.38 19.4-8.38 8.91-20.97 8.91z m415.19 63.95q0-18.87-13.63-32.5-13.63-13.63-33.55-13.63-18.87 0-32.5 13.63-13.63 13.63-13.63 32.5 0 18.88 13.63 32.51 13.63 13.63 32.5 13.63 19.92 0 33.55-13.63 13.63-13.63 13.63-32.51z m-97.51-97.51q0-18.87-13.63-32.5-13.63-13.63-33.55-13.63-18.87 0-32.5 13.63-13.63 13.63-13.63 32.5 0 18.88 13.63 32.51 13.63 13.63 32.5 13.63 19.92 0 33.55-13.63 13.63-13.63 13.63-32.51z m97.51-97.5q0-19.93-13.63-33.04t-33.55-13.11q-18.87 0-32.5 13.11-13.63 13.11-13.63 33.04 0 18.87 13.63 32.5 13.63 13.63 32.5 13.63 19.92 0 33.55-13.63 13.63-13.63 13.63-32.5z m97.51 97.5q0-18.87-13.63-32.5-13.63-13.63-32.5-13.63-19.92 0-33.55 13.63-13.63 13.63-13.63 32.5 0 18.88 13.63 32.51 13.63 13.63 33.55 13.63 18.87 0 32.5-13.63 13.63-13.63 13.63-32.51z"  horiz-adv-x="1024" />

    
    <glyph glyph-name="jiachang_shujia" unicode="&#58972;" d="M884.224 768h-232.448c-6.656 0-11.776-5.12-11.776-11.776v-110.08c0-3.072-2.56-6.144-6.144-6.144H454.144c-3.072 0-6.144 2.56-6.144 6.144v174.08c0 6.656-5.632 11.776-11.776 11.776H139.776c-6.656 0-11.776-5.632-11.776-11.776v-871.936c0-6.656 5.632-11.776 11.776-11.776h743.936c6.656 0 11.776 5.632 11.776 11.776V756.224c0.512 6.656-4.608 11.776-11.264 11.776zM384 6.144c0-3.072-2.56-6.144-6.144-6.144H198.144c-3.072 0-6.144 2.56-6.144 6.144V762.368c0 3.072 2.56 6.144 6.144 6.144h180.224c3.072 0 6.144-2.56 6.144-6.144L384 6.144z m256 512c0-3.584-2.56-6.144-6.144-6.144h-115.712c-3.072 0-6.144-2.56-6.144-6.144v-52.224c0-3.072 2.56-6.144 6.144-6.144h115.712c3.072 0 6.144-2.56 6.144-6.144V389.12c0-3.072-2.56-6.144-6.144-6.144h-115.712c-3.072 0-6.144-2.56-6.144-6.144v-52.224c0-3.072 2.56-6.144 6.144-6.144h115.712c3.072 0 6.144-2.56 6.144-6.144v-51.712c0-3.072-2.56-6.144-6.144-6.144h-115.712c-3.072 0-6.144-2.56-6.144-6.144v-52.224c0-3.072 2.56-6.144 6.144-6.144h115.712c3.072 0 6.144-2.56 6.144-6.144v-180.224c0-3.072-2.56-6.144-6.144-6.144H454.144c-3.072 0-6.144 2.56-6.144 6.144V570.368c0 3.072 2.56 6.144 6.144 6.144h179.712c3.072 0 6.144-2.56 6.144-6.144v-52.224z m192 160.256v-671.744c0-3.072-2.56-6.144-6.144-6.144h-116.224c-3.072 0-6.144 2.56-6.144 6.144V640.512h-0.512V698.368c0 3.072 2.56 6.144 6.144 6.144h116.224c3.072 0 6.144-2.56 6.144-6.144v-19.968z"  horiz-adv-x="1024" />

    
    <glyph glyph-name="duoshaorenguanzhu" unicode="&#58937;" d="M966.78985 703.232c-61.44 80.64-160 122.624-252.416 106.624-49.152-8.576-89.6-23.936-124.8-47.744l-34.56-28.16-43.648-43.648c-13.056 10.752-24.96 21.888-36.608 32.768-48.896 45.44-94.976 88.576-203.136 88.576l-69.76-10.24c-55.68-16.896-104.832-48.384-134.784-86.272-14.464-18.176-34.176-46.464-46.848-78.72-64.64-163.968 39.68-267.776 115.712-343.552l301.952-298.624c3.712-2.944 7.04-6.272 10.624-9.728 13.568-13.312 30.592-29.824 61.056-29.824 5.12 0 10.624 0.512 16.512 1.536 44.16 7.808 86.272 55.296 120.064 93.312 9.088 10.368 17.536 19.84 24.832 27.136l189.952 188.416c9.856 9.856 20.096 19.456 30.08 29.056 49.92 47.488 101.504 96.512 123.648 176.768 22.016 78.976 4.48 163.584-47.872 232.32z m-126.72-331.392c-8.448-8.064-16.896-15.872-24.96-24.064L625.15785 159.488c-3.328-3.328-9.344-9.728-16.896-17.664-20.608-21.76-83.072-88.064-96.512-93.056-6.016 1.024-20.096 17.92-26.112 25.088-4.096 4.864-7.808 9.216-10.88 12.288L190.85385 366.976c-6.016 6.016-12.288 11.904-18.56 17.92-24.32 23.168-49.664 47.232-62.976 78.08-7.552 17.28-11.648 35.84-13.056 54.4l14.848-16.128c74.368-80.768 270.336-152.576 404.992-152.576 120.192 0 332.544 89.216 376.96 108.416l30.464 27.52c-3.712-12.672-8.192-24.064-13.312-32.768-17.792-30.464-44.544-55.68-70.144-80z"  horiz-adv-x="1024" />

    
    <glyph glyph-name="xuanzesanjiao-xiangzuo" unicode="&#58978;" d="M299.264 376.576l372.8 349.44a40.384 40.384 0 0 0 53.248 0 34.496 34.496 0 0 0 0-49.92L378.752 351.296l345.024-323.392a34.496 34.496 0 0 0 0-49.92 40.384 40.384 0 0 0-53.248 0L299.264 326.08c-15.04 14.72-15.04 36.48 0 50.56z"  horiz-adv-x="1024" />

    
    <glyph glyph-name="xialasanjiao-xiangyou" unicode="&#58979;" d="M724.736 327.424L352-22.016a40.384 40.384 0 0 0-53.248 0 34.496 34.496 0 0 0 0 49.92l346.56 324.8L300.16 676.096a34.496 34.496 0 0 0 0 49.92 40.384 40.384 0 0 0 53.248 0l371.264-348.032c15.04-14.72 15.04-36.48 0-50.56z"  horiz-adv-x="1024" />

    


  </font>
</defs>
</svg>
